<mxfile host="65bd71144e">
    <diagram id="kZdGCUTgBFOBkM-bZj2W" name="Page-1">
        <mxGraphModel dx="571" dy="433" grid="1" gridSize="10" guides="1" tooltips="1" connect="1" arrows="1" fold="1" page="1" pageScale="1" pageWidth="850" pageHeight="1100" math="0" shadow="0">
            <root>
                <mxCell id="0"/>
                <mxCell id="1" parent="0"/>
                <mxCell id="2" value="&lt;b style=&quot;font-size: 16px;&quot;&gt;step 0 --&amp;gt; hashof 7war el json file da el esht8l be f video 6 3a4an yb2a fe fake server ashof el denia mazbota wala la ++&amp;nbsp;&lt;/b&gt;&lt;br&gt;&lt;b style=&quot;font-size: 16px;&quot;&gt;hashof el fastapi bytrbt ezay 3a4an a3ml 7esaby fel axios statment htnf3 wala la&amp;nbsp;&lt;/b&gt;&lt;br&gt;&lt;b style=&quot;font-size: 16px;&quot;&gt;step 1--&amp;gt; hazabat el my profile page&lt;font color=&quot;#33ff33&quot;&gt;--&amp;gt; DONE &lt;/font&gt;&lt;font color=&quot;#ff2908&quot;&gt;etba2a el styling ageb l cards yemen seka&lt;/font&gt;&amp;nbsp;&lt;/b&gt;&lt;br&gt;&lt;br&gt;&lt;b style=&quot;font-size: 16px;&quot;&gt;step 2--&amp;gt; hazabat el single project page&lt;/b&gt;&lt;br&gt;&lt;b style=&quot;font-size: 16px;&quot;&gt;&amp;nbsp;&lt;/b&gt;&lt;br&gt;&lt;b style=&quot;font-size: 16px;&quot;&gt;step 3--&amp;gt; hazabat el add new project fel my profile&lt;/b&gt;&lt;br&gt;&lt;br&gt;&lt;b style=&quot;font-size: 16px;&quot;&gt;step 4--&amp;gt;&amp;nbsp; hashof 7war el sweet alert da f ay delete aw submit form aw kda&amp;nbsp;&lt;/b&gt;&lt;br&gt;&lt;br&gt;&lt;b style=&quot;font-size: 16px;&quot;&gt;step 5--&amp;gt;hazabt el styling koways bta3 kolo ba2a&lt;br&gt;&lt;/b&gt;&lt;br&gt;&lt;b style=&quot;font-size: 16px;&quot;&gt;&amp;nbsp;&lt;/b&gt;&lt;span style=&quot;font-size: 16px;&quot;&gt;&lt;b&gt;C:\Users\Mai\Graduation Project\frontend&lt;/b&gt;&lt;/span&gt;&lt;br&gt;&lt;b style=&quot;font-size: 16px;&quot;&gt;&amp;nbsp;&amp;nbsp;&lt;/b&gt;" style="text;strokeColor=none;align=center;fillColor=none;html=1;verticalAlign=middle;whiteSpace=wrap;rounded=0;" parent="1" vertex="1">
                    <mxGeometry x="50" y="10" width="560" height="520" as="geometry"/>
                </mxCell>
            </root>
        </mxGraphModel>
    </diagram>
</mxfile>